<?xml version="1.0" standalone="no"?>
<!DOCTYPE svg PUBLIC "-//W3C//DTD SVG 20010904//EN"
 "http://www.w3.org/TR/2001/REC-SVG-20010904/DTD/svg10.dtd">
<svg version="1.0" xmlns="http://www.w3.org/2000/svg"
 width="512.000000pt" height="512.000000pt" viewBox="0 0 512.000000 512.000000"
 preserveAspectRatio="xMidYMid meet">
<metadata>
Created by potrace 1.14, written by Peter Selinger 2001-2017
</metadata>
<g transform="translate(0.000000,512.000000) scale(0.100000,-0.100000)"
fill="#000000" stroke="none">
<path d="M1546 4963 c-1 -2 -78 -3 -171 -4 -139 0 -176 -3 -218 -19 -87 -33
-174 -147 -191 -251 -3 -19 -5 -137 -5 -264 0 -126 0 -250 -1 -275 -1 -25 -2
-49 -2 -55 1 -9 1 -492 1 -535 0 -8 0 -139 0 -290 1 -400 1 -521 0 -650 0 -63
-1 -119 0 -125 0 -18 0 -460 -1 -475 0 -8 0 -94 1 -190 0 -96 0 -184 0 -195 0
-11 0 -121 0 -245 -1 -124 -1 -229 -1 -235 0 -36 1 -257 2 -290 0 -22 1 -134
3 -250 3 -201 4 -212 28 -266 33 -70 77 -120 137 -155 43 -26 56 -28 172 -31
69 -2 142 -5 163 -6 20 -1 37 0 37 3 0 3 53 4 117 3 65 -2 222 -2 348 -2 367
0 478 -2 487 -7 4 -3 8 -2 8 3 0 4 53 7 117 6 65 -2 222 -2 348 -2 367 0 478
-2 487 -7 4 -3 8 -2 8 3 0 4 109 7 242 6 277 -1 313 5 376 65 99 94 120 159
122 372 1 80 2 152 1 160 0 8 0 89 0 180 1 91 1 171 0 178 -2 25 -2 49 -1 164
0 64 0 120 -1 125 -1 4 -1 13 0 18 1 6 2 89 1 185 0 96 0 229 1 295 0 66 1
125 1 130 -1 24 -3 341 -2 350 2 14 0 294 -1 303 -1 4 -1 12 0 17 1 6 2 89 1
185 0 96 0 229 1 295 0 66 1 127 0 135 0 8 0 89 0 180 1 91 1 171 0 178 -2 25
-2 49 -1 164 0 64 0 120 -1 125 -1 4 -1 13 0 18 3 18 2 366 -2 545 -3 154 -6
182 -27 234 -26 68 -92 140 -155 171 -45 22 -109 25 -500 25 -359 -1 -478 1
-487 6 -4 3 -8 2 -8 -3 0 -4 -53 -7 -117 -6 -65 2 -221 2 -348 2 -367 0 -478
2 -487 7 -4 3 -8 2 -8 -3 0 -7 -365 -8 -438 0 -18 2 -34 2 -36 0z"/>
</g>
</svg>
